<svg width="800" height="400" viewBox="0 0 800 400" xmlns="http://www.w3.org/2000/svg">
  <defs>
    <linearGradient id="heroGrad1" x1="0%" y1="0%" x2="100%" y2="100%">
      <stop offset="0%" style="stop-color:#8b5cf6;stop-opacity:1" />
      <stop offset="50%" style="stop-color:#6366f1;stop-opacity:1" />
      <stop offset="100%" style="stop-color:#3b82f6;stop-opacity:1" />
    </linearGradient>
  </defs>
  <rect width="800" height="400" fill="url(#heroGrad1)"/>
  
  <!-- Multiple vape devices -->
  <g opacity="0.8">
    <!-- Vape 1 -->
    <rect x="150" y="120" width="25" height="160" rx="12" fill="#1f2937"/>
    <circle cx="162" cy="150" r="8" fill="#ef4444"/>
    <circle cx="162" cy="180" r="6" fill="#f59e0b"/>
    <rect x="155" y="200" width="15" height="60" rx="7" fill="#374151"/>
    
    <!-- Vape 2 -->
    <rect x="250" y="100" width="30" height="180" rx="15" fill="#111827"/>
    <rect x="255" y="110" width="20" height="20" rx="10" fill="#6366f1"/>
    <circle cx="265" cy="150" r="10" fill="#10b981"/>
    <rect x="258" y="180" width="14" height="80" rx="7" fill="#4b5563"/>
    
    <!-- Vape 3 -->
    <rect x="350" y="130" width="20" height="140" rx="10" fill="#0f172a"/>
    <circle cx="360" cy="160" r="6" fill="#ec4899"/>
    <circle cx="360" cy="190" r="4" fill="#f97316"/>
  </g>
  
  <!-- Smoke effects -->
  <g opacity="0.6">
    <path d="M 162 100 Q 170 80 175 60 Q 180 40 185 20" stroke="white" stroke-width="3" fill="none"/>
    <path d="M 265 90 Q 275 70 280 50 Q 285 30 290 10" stroke="white" stroke-width="4" fill="none"/>
    <path d="M 360 110 Q 368 90 373 70 Q 378 50 383 30" stroke="white" stroke-width="2" fill="none"/>
  </g>
  
  <!-- Text content -->
  <text x="500" y="150" fill="white" font-family="Arial, sans-serif" font-size="48" font-weight="bold">NEW ARRIVALS</text>
  <text x="500" y="200" fill="white" font-family="Arial, sans-serif" font-size="24" opacity="0.9">Latest Vapes &amp; Accessories</text>
  <text x="500" y="240" fill="white" font-family="Arial, sans-serif" font-size="18" opacity="0.8">Discover our newest collection of</text>
  <text x="500" y="265" fill="white" font-family="Arial, sans-serif" font-size="18" opacity="0.8">premium vaping products</text>
  
  <!-- Call to action -->
  <rect x="500" y="300" width="180" height="50" rx="25" fill="white" opacity="0.9"/>
  <text x="590" y="330" text-anchor="middle" fill="#6366f1" font-family="Arial, sans-serif" font-size="18" font-weight="bold">SHOP NOW</text>
</svg>
