<svg width="800" height="400" viewBox="0 0 800 400" xmlns="http://www.w3.org/2000/svg">
  <defs>
    <linearGradient id="discountGrad" x1="0%" y1="0%" x2="100%" y2="100%">
      <stop offset="0%" style="stop-color:#ef4444;stop-opacity:1" />
      <stop offset="50%" style="stop-color:#dc2626;stop-opacity:1" />
      <stop offset="100%" style="stop-color:#b91c1c;stop-opacity:1" />
    </linearGradient>
  </defs>
  <rect width="800" height="400" fill="url(#discountGrad)"/>
  
  <!-- Two disposable vapes -->
  <g opacity="0.9">
    <!-- Vape 1 -->
    <rect x="120" y="150" width="40" height="100" rx="20" fill="#1f2937"/>
    <rect x="125" y="155" width="30" height="15" rx="7" fill="#fbbf24"/>
    <circle cx="140" cy="190" r="8" fill="#10b981"/>
    <rect x="130" y="210" width="20" height="30" rx="10" fill="#374151"/>
    
    <!-- Vape 2 -->
    <rect x="200" y="140" width="45" height="120" rx="22" fill="#111827"/>
    <rect x="205" y="145" width="35" height="18" rx="9" fill="#f59e0b"/>
    <circle cx="222" cy="185" r="10" fill="#ef4444"/>
    <rect x="210" y="210" width="25" height="40" rx="12" fill="#4b5563"/>
  </g>
  
  <!-- Large discount badge -->
  <circle cx="350" cy="200" r="80" fill="#fbbf24" opacity="0.95"/>
  <circle cx="350" cy="200" r="65" fill="#f59e0b" opacity="0.9"/>
  <text x="350" y="185" text-anchor="middle" fill="white" font-family="Arial, sans-serif" font-size="32" font-weight="bold">$2</text>
  <text x="350" y="210" text-anchor="middle" fill="white" font-family="Arial, sans-serif" font-size="20" font-weight="bold">OFF</text>
  <text x="350" y="230" text-anchor="middle" fill="white" font-family="Arial, sans-serif" font-size="12">BUY 2</text>
  
  <!-- Text content -->
  <text x="480" y="130" fill="white" font-family="Arial, sans-serif" font-size="42" font-weight="bold">SPECIAL DEAL</text>
  <text x="480" y="170" fill="white" font-family="Arial, sans-serif" font-size="28" opacity="0.9">Buy Any 2 Disposable Vapes</text>
  <text x="480" y="210" fill="white" font-family="Arial, sans-serif" font-size="28" opacity="0.9">Get $2 OFF</text>
  <text x="480" y="250" fill="white" font-family="Arial, sans-serif" font-size="16" opacity="0.8">Mix and match from our premium selection</text>
  <text x="480" y="275" fill="white" font-family="Arial, sans-serif" font-size="16" opacity="0.8">of disposable vape devices</text>
  
  <!-- Call to action -->
  <rect x="480" y="310" width="180" height="50" rx="25" fill="white" opacity="0.95"/>
  <text x="570" y="340" text-anchor="middle" fill="#dc2626" font-family="Arial, sans-serif" font-size="18" font-weight="bold">SHOP DEAL</text>
</svg>
