<svg width="400" height="400" viewBox="0 0 400 400" fill="none" xmlns="http://www.w3.org/2000/svg"><rect width="400" height="400" fill="#E5E7EB"/><path d="M160 160H140C128.954 160 120 168.954 120 180V220C120 231.046 128.954 240 140 240H260C271.046 240 280 231.046 280 220V180C280 168.954 271.046 160 260 160H240M160 160V150C160 138.954 168.954 130 180 130H220C231.046 130 240 138.954 240 150V160M160 160H240M170 200C170 205.523 165.523 210 160 210C154.477 210 150 205.523 150 200C150 194.477 154.477 190 160 190C165.523 190 170 194.477 170 200ZM120 225L160 200L185 225L225 190L280 225V240H120V225Z" stroke="#9CA3AF" stroke-width="8" stroke-linecap="round" stroke-linejoin="round"/></svg>
