<svg width="400" height="400" viewBox="0 0 400 400" xmlns="http://www.w3.org/2000/svg">
  <defs>
    <linearGradient id="accessoriesGrad" x1="0%" y1="0%" x2="100%" y2="100%">
      <stop offset="0%" style="stop-color:#7c3aed;stop-opacity:1" />
      <stop offset="100%" style="stop-color:#2563eb;stop-opacity:1" />
    </linearGradient>
  </defs>
  <rect width="400" height="400" fill="url(#accessoriesGrad)"/>
  <!-- Grinder -->
  <circle cx="150" cy="150" r="40" fill="#374151" opacity="0.8"/>
  <circle cx="150" cy="150" r="25" fill="#6b7280" opacity="0.6"/>
  <circle cx="150" cy="150" r="10" fill="#9ca3af" opacity="0.8"/>
  <!-- Lighter -->
  <rect x="220" y="120" width="30" height="60" rx="15" fill="#ef4444" opacity="0.8"/>
  <rect x="225" y="110" width="20" height="10" rx="5" fill="#fbbf24" opacity="0.9"/>
  <ellipse cx="235" cy="105" rx="3" ry="8" fill="#fb923c" opacity="0.7"/>
  <!-- Scale -->
  <rect x="120" y="220" width="60" height="40" rx="10" fill="#1f2937" opacity="0.8"/>
  <rect x="130" y="210" width="40" height="10" rx="5" fill="#4b5563" opacity="0.7"/>
  <circle cx="135" cy="215" r="3" fill="#10b981" opacity="0.9"/>
  <circle cx="165" cy="215" r="3" fill="#ef4444" opacity="0.9"/>
  <!-- Rolling papers -->
  <rect x="210" y="200" width="50" height="80" rx="5" fill="#f9fafb" opacity="0.8"/>
  <rect x="215" y="205" width="40" height="5" fill="#6366f1" opacity="0.6"/>
  <rect x="215" y="215" width="40" height="2" fill="#1f2937" opacity="0.3"/>
  <rect x="215" y="220" width="40" height="2" fill="#1f2937" opacity="0.3"/>
  <rect x="215" y="225" width="40" height="2" fill="#1f2937" opacity="0.3"/>
  <!-- Text -->
  <text x="200" y="320" text-anchor="middle" fill="white" font-family="Arial, sans-serif" font-size="18" font-weight="bold">ACCESSORIES</text>
  <text x="200" y="350" text-anchor="middle" fill="white" font-family="Arial, sans-serif" font-size="14" opacity="0.8">Grinders, Lighters &amp; More</text>
</svg>
