<svg width="400" height="400" viewBox="0 0 400 400" xmlns="http://www.w3.org/2000/svg">
  <defs>
    <linearGradient id="candleGrad" x1="0%" y1="0%" x2="100%" y2="100%">
      <stop offset="0%" style="stop-color:#f59e0b;stop-opacity:1" />
      <stop offset="100%" style="stop-color:#d97706;stop-opacity:1" />
    </linearGradient>
  </defs>
  <rect width="400" height="400" fill="url(#candleGrad)"/>
  
  <!-- Candle -->
  <rect x="180" y="180" width="40" height="120" rx="20" fill="#7c2d12" opacity="0.8"/>
  <ellipse cx="200" cy="180" rx="25" ry="8" fill="#92400e" opacity="0.7"/>
  
  <!-- Wick -->
  <rect x="198" y="170" width="4" height="15" fill="#451a03" opacity="0.9"/>
  
  <!-- Flame -->
  <ellipse cx="200" cy="160" rx="8" ry="15" fill="#f59e0b" opacity="0.8"/>
  <ellipse cx="200" cy="155" rx="5" ry="10" fill="#fbbf24" opacity="0.9"/>
  
  <!-- Incense stick -->
  <rect x="120" y="200" width="4" height="80" fill="#92400e" opacity="0.8" transform="rotate(-15 122 240)"/>
  <circle cx="115" cy="195" r="3" fill="#ef4444" opacity="0.7" transform="rotate(-15 122 240)"/>
  
  <!-- Smoke -->
  <path d="M 115 190 Q 110 180 105 170 Q 100 160 95 150" stroke="white" stroke-width="2" fill="none" opacity="0.6"/>
  <path d="M 200 145 Q 205 135 210 125 Q 215 115 220 105" stroke="white" stroke-width="2" fill="none" opacity="0.6"/>
  
  <!-- Text -->
  <text x="200" y="340" text-anchor="middle" fill="white" font-family="Arial, sans-serif" font-size="20" font-weight="bold">CANDLES &amp; INCENSE</text>
  <text x="200" y="365" text-anchor="middle" fill="white" font-family="Arial, sans-serif" font-size="14" opacity="0.8">Aromatherapy &amp; Ambiance</text>
</svg>
