<svg width="400" height="400" viewBox="0 0 400 400" xmlns="http://www.w3.org/2000/svg">
  <defs>
    <linearGradient id="cigarGrad" x1="0%" y1="0%" x2="100%" y2="100%">
      <stop offset="0%" style="stop-color:#92400e;stop-opacity:1" />
      <stop offset="100%" style="stop-color:#451a03;stop-opacity:1" />
    </linearGradient>
  </defs>
  <rect width="400" height="400" fill="url(#cigarGrad)"/>
  <!-- Cigar -->
  <ellipse cx="200" cy="200" rx="100" ry="15" fill="#7c2d12" opacity="0.8"/>
  <ellipse cx="190" cy="200" rx="90" ry="12" fill="#a16207" opacity="0.7"/>
  <ellipse cx="180" cy="200" rx="80" ry="10" fill="#d97706" opacity="0.6"/>
  <!-- Cigar band -->
  <rect x="160" y="190" width="30" height="20" fill="#fbbf24" opacity="0.9"/>
  <rect x="165" y="195" width="20" height="10" fill="#92400e" opacity="0.8"/>
  <!-- Cigar tip -->
  <ellipse cx="300" cy="200" rx="8" ry="12" fill="#451a03" opacity="0.9"/>
  <!-- Ash -->
  <ellipse cx="310" cy="200" rx="3" ry="8" fill="#d1d5db" opacity="0.7"/>
  <!-- Smoke -->
  <path d="M 320 200 Q 330 190 340 180 Q 350 170 360 160" stroke="#e5e7eb" stroke-width="2" fill="none" opacity="0.6"/>
  <path d="M 325 205 Q 335 195 345 185 Q 355 175 365 165" stroke="#e5e7eb" stroke-width="1" fill="none" opacity="0.5"/>
  <!-- Text -->
  <text x="200" y="320" text-anchor="middle" fill="white" font-family="Arial, sans-serif" font-size="24" font-weight="bold">CIGARILLOS</text>
  <text x="200" y="350" text-anchor="middle" fill="white" font-family="Arial, sans-serif" font-size="16" opacity="0.8">Premium Selection</text>
</svg>
